<?xml version="1.0" encoding="utf-8"?>
<!-- Generator: Adobe Illustrator 17.1.0, SVG Export Plug-In . SVG Version: 6.00 Build 0)  -->
<!DOCTYPE svg PUBLIC "-//W3C//DTD SVG 1.1//EN" "http://www.w3.org/Graphics/SVG/1.1/DTD/svg11.dtd">
<svg version="1.1" id="Layer_1" xmlns="http://www.w3.org/2000/svg" xmlns:xlink="http://www.w3.org/1999/xlink" x="0px" y="0px"
	 viewBox="0 0 1008 504" enable-background="new 0 0 1008 504" xml:space="preserve">
<polygon fill="#FFFFFF" stroke="#FFFFFF" stroke-miterlimit="10" points="29,150.3 28.7,345.9 325.6,345.9 325.6,150.3 177.4,252 
	"/>
<g enable-background="new    ">
	<path fill="#74C9BD" d="M454.3,138.1h21.4V352h-21.4V138.1z"/>
	<path fill="#74C9BD" d="M568.3,352V138.1h4.7l142.3,163.9V138.1h21.1V352h-4.8L590.4,190V352H568.3z"/>
	<path fill="#74C9BD" d="M831.8,138.1h21.8v80.3l85.5-80.3h28.7l-102.7,96L975.8,352h-28.5l-93.7-99.6V352h-21.8V138.1z"/>
</g>
<g enable-background="new    ">
	<path fill="#1AC1B5" d="M454.3,138.1h21.4V352h-21.4V138.1z"/>
	<path fill="#1AC1B5" d="M568.3,352V138.1h4.7l142.3,163.9V138.1h21.1V352h-4.8L590.4,190V352H568.3z"/>
	<path fill="#1AC1B5" d="M831.8,138.1h21.8v80.3l85.5-80.3h28.7l-102.7,96L975.8,352h-28.5l-93.7-99.6V352h-21.8V138.1z"/>
</g>
</svg>
