<?xml version="1.0" encoding="utf-8"?>
<!-- Generator: Adobe Illustrator 17.1.0, SVG Export Plug-In . SVG Version: 6.00 Build 0)  -->
<!DOCTYPE svg PUBLIC "-//W3C//DTD SVG 1.1//EN" "http://www.w3.org/Graphics/SVG/1.1/DTD/svg11.dtd">
<svg version="1.1" id="Layer_1" xmlns="http://www.w3.org/2000/svg" xmlns:xlink="http://www.w3.org/1999/xlink" x="0px" y="0px"
	 viewBox="0 0 1008 504" enable-background="new 0 0 1008 504" xml:space="preserve">
<circle fill="#010101" stroke="#010101" stroke-width="5" stroke-miterlimit="10" cx="105" cy="92" r="41"/>
<path fill="#FFFFFF" d="M87.2,76.2c0,0,5.5,8.1,20.3,10c0.3,0.1-2.6-11.6,7.4-12.5c3.7-0.3,6.6,1.6,10.2,2.6c1.3,0.3,2.7,0.4,4.2,0
	c0,0-3.7,3.5-4.4,4.4l4.4-1.8c0,0,0,3.9-3.7,6.4c0,0-4.8,40.4-41.3,22.7c0,0,7,1.1,13.6-4.1c0,0-6.6-0.4-8.9-7c0,0,2.2,1.1,4.1,0
	c0,0-7,0-8.9-9.2c0,0,2.2,1.5,5.2,1.5C89.4,89.1,83.5,82.1,87.2,76.2z"/>
</svg>
